<svg viewBox="171 237.9668 380 253.0663" width="5000" height="3329.819736842105" xmlns="http://www.w3.org/2000/svg" xmlns:xlink="http://www.w3.org/1999/xlink" preserveAspectRatio="none"><defs></defs><style>.companyName {fill:#1B5996;fill-opacity:1;}.icon1 {fill:#D9C0CF;fill-opacity:1;}.icon2 {fill:#38305F;fill-opacity:1;}.icon3 {fill:#1B5996;fill-opacity:1;}.icon3-str {stroke:#1B5996;stroke-opacity:1;}.text {fill:#1B5996;fill-opacity:1;}</style><g opacity="1" transform="rotate(0 240.0801 470.8737)">
<svg width="241.8397" height="20.1594" x="240.0801" y="470.8737" version="1.1" preserveAspectRatio="none" viewBox="4.2 -30.28 366.08 30.520000000000003">
  <g transform="matrix(1 0 0 1 0 0)" class="text"><path id="id-6izo4zJp19" d="M4.20 0L4.20-28L8.20-28L8.20 0L4.20 0Z M29.36-21.40Q33.40-21.40 35.78-19.06Q38.16-16.72 38.16-12.20L38.16-12.20L38.16 0L34.32 0L34.32-11.76Q34.32-14.84 32.84-16.40Q31.36-17.96 28.60-17.96L28.60-17.96Q25.48-17.96 23.68-16.14Q21.88-14.32 21.88-10.92L21.88-10.92L21.88 0L18.04 0L18.04-21.20L21.72-21.20L21.72-18Q22.88-19.64 24.86-20.52Q26.84-21.40 29.36-21.40L29.36-21.40Z M66.12 0.24Q63.52 0.24 61.12-0.46Q58.72-1.16 57.36-2.24L57.36-2.24L58.96-5.28Q60.36-4.28 62.36-3.68Q64.36-3.08 66.40-3.08L66.40-3.08Q71.44-3.08 71.44-5.96L71.44-5.96Q71.44-6.92 70.76-7.48Q70.08-8.04 69.06-8.30Q68.04-8.56 66.16-8.88L66.16-8.88Q63.60-9.28 61.98-9.80Q60.36-10.32 59.20-11.56Q58.04-12.80 58.04-15.04L58.04-15.04Q58.04-17.92 60.44-19.66Q62.84-21.40 66.88-21.40L66.88-21.40Q69-21.40 71.12-20.88Q73.24-20.36 74.60-19.48L74.60-19.48L72.96-16.44Q70.36-18.12 66.84-18.12L66.84-18.12Q64.40-18.12 63.12-17.32Q61.84-16.52 61.84-15.20L61.84-15.20Q61.84-14.16 62.56-13.56Q63.28-12.96 64.34-12.68Q65.40-12.40 67.32-12.04L67.32-12.04Q69.88-11.60 71.46-11.10Q73.04-10.60 74.16-9.40Q75.28-8.20 75.28-6.04L75.28-6.04Q75.28-3.16 72.82-1.46Q70.36 0.24 66.12 0.24L66.12 0.24Z M98.28 0L90.32-9.88L85.92-5.80L85.92 0L82.08 0L82.08-29.68L85.92-29.68L85.92-10.64L97.48-21.20L102.12-21.20L93.20-12.44L103 0L98.28 0Z M108.44 0L108.44-21.20L112.28-21.20L112.28 0L108.44 0ZM110.36-25.28Q109.24-25.28 108.50-26Q107.76-26.72 107.76-27.76L107.76-27.76Q107.76-28.80 108.50-29.54Q109.24-30.28 110.36-30.28L110.36-30.28Q111.48-30.28 112.22-29.58Q112.96-28.88 112.96-27.84L112.96-27.84Q112.96-26.76 112.22-26.02Q111.48-25.28 110.36-25.28L110.36-25.28Z M121.60 0L121.60-29.68L125.44-29.68L125.44 0L121.60 0Z M134.76 0L134.76-29.68L138.60-29.68L138.60 0L134.76 0Z M154 0.24Q151.40 0.24 149-0.46Q146.60-1.16 145.24-2.24L145.24-2.24L146.84-5.28Q148.24-4.28 150.24-3.68Q152.24-3.08 154.28-3.08L154.28-3.08Q159.32-3.08 159.32-5.96L159.32-5.96Q159.32-6.92 158.64-7.48Q157.96-8.04 156.94-8.30Q155.92-8.56 154.04-8.88L154.04-8.88Q151.48-9.28 149.86-9.80Q148.24-10.32 147.08-11.56Q145.92-12.80 145.92-15.04L145.92-15.04Q145.92-17.92 148.32-19.66Q150.72-21.40 154.76-21.40L154.76-21.40Q156.88-21.40 159-20.88Q161.12-20.36 162.48-19.48L162.48-19.48L160.84-16.44Q158.24-18.12 154.72-18.12L154.72-18.12Q152.28-18.12 151-17.32Q149.72-16.52 149.72-15.20L149.72-15.20Q149.72-14.16 150.44-13.56Q151.16-12.96 152.22-12.68Q153.28-12.40 155.20-12.04L155.20-12.04Q157.76-11.60 159.34-11.10Q160.92-10.60 162.04-9.40Q163.16-8.20 163.16-6.04L163.16-6.04Q163.16-3.16 160.70-1.46Q158.24 0.24 154 0.24L154 0.24Z M211.36-21.20L214.80-21.20L206.88 0L203.20 0L197.08-16.08L190.88 0L187.20 0L179.32-21.20L182.96-21.20L189.12-4.32L195.52-21.20L198.76-21.20L205.04-4.24L211.36-21.20Z M239.24-10.48Q239.24-10.04 239.16-9.32L239.16-9.32L221.96-9.32Q222.32-6.52 224.42-4.82Q226.52-3.12 229.64-3.12L229.64-3.12Q233.44-3.12 235.76-5.68L235.76-5.68L237.88-3.20Q236.44-1.52 234.30-0.64Q232.16 0.24 229.52 0.24L229.52 0.24Q226.16 0.24 223.56-1.14Q220.96-2.52 219.54-5Q218.12-7.48 218.12-10.60L218.12-10.60Q218.12-13.68 219.50-16.16Q220.88-18.64 223.30-20.02Q225.72-21.40 228.76-21.40L228.76-21.40Q231.80-21.40 234.18-20.02Q236.56-18.64 237.90-16.16Q239.24-13.68 239.24-10.48L239.24-10.48ZM228.76-18.16Q226-18.16 224.14-16.48Q222.28-14.80 221.96-12.08L221.96-12.08L235.56-12.08Q235.24-14.76 233.38-16.46Q231.52-18.16 228.76-18.16L228.76-18.16Z M270.04-4L271.24-1.24Q270.40-0.52 269.16-0.14Q267.92 0.24 266.60 0.24L266.60 0.24Q263.40 0.24 261.64-1.48Q259.88-3.20 259.88-6.40L259.88-6.40L259.88-18.04L256.28-18.04L256.28-21.20L259.88-21.20L259.88-25.84L263.72-25.84L263.72-21.20L269.80-21.20L269.80-18.04L263.72-18.04L263.72-6.56Q263.72-4.84 264.58-3.92Q265.44-3 267.04-3L267.04-3Q268.80-3 270.04-4L270.04-4Z M281.56-17.64Q282.56-19.48 284.52-20.44Q286.48-21.40 289.28-21.40L289.28-21.40L289.28-17.68Q288.96-17.72 288.40-17.72L288.40-17.72Q285.28-17.72 283.50-15.86Q281.72-14 281.72-10.56L281.72-10.56L281.72 0L277.88 0L277.88-21.20L281.56-21.20L281.56-17.64Z M312.20-21.20L316.04-21.20L316.04 0L312.40 0L312.40-3.20Q311.24-1.56 309.34-0.66Q307.44 0.24 305.20 0.24L305.20 0.24Q300.96 0.24 298.52-2.10Q296.08-4.44 296.08-9L296.08-9L296.08-21.20L299.92-21.20L299.92-9.44Q299.92-6.36 301.40-4.78Q302.88-3.20 305.64-3.20L305.64-3.20Q308.68-3.20 310.44-5.04Q312.20-6.88 312.20-10.24L312.20-10.24L312.20-21.20Z M331.44 0.24Q328.84 0.24 326.44-0.46Q324.04-1.16 322.68-2.24L322.68-2.24L324.28-5.28Q325.68-4.28 327.68-3.68Q329.68-3.08 331.72-3.08L331.72-3.08Q336.76-3.08 336.76-5.96L336.76-5.96Q336.76-6.92 336.08-7.48Q335.40-8.04 334.38-8.30Q333.36-8.56 331.48-8.88L331.48-8.88Q328.92-9.28 327.30-9.80Q325.68-10.32 324.52-11.56Q323.36-12.80 323.36-15.04L323.36-15.04Q323.36-17.92 325.76-19.66Q328.16-21.40 332.20-21.40L332.20-21.40Q334.32-21.40 336.44-20.88Q338.56-20.36 339.92-19.48L339.92-19.48L338.28-16.44Q335.68-18.12 332.16-18.12L332.16-18.12Q329.72-18.12 328.44-17.32Q327.16-16.52 327.16-15.20L327.16-15.20Q327.16-14.16 327.88-13.56Q328.60-12.96 329.66-12.68Q330.72-12.40 332.64-12.04L332.64-12.04Q335.20-11.60 336.78-11.10Q338.36-10.60 339.48-9.40Q340.60-8.20 340.60-6.04L340.60-6.04Q340.60-3.16 338.14-1.46Q335.68 0.24 331.44 0.24L331.44 0.24Z M358.12-4L359.32-1.24Q358.48-0.52 357.24-0.14Q356.00 0.24 354.68 0.24L354.68 0.24Q351.48 0.24 349.72-1.48Q347.96-3.20 347.96-6.40L347.96-6.40L347.96-18.04L344.36-18.04L344.36-21.20L347.96-21.20L347.96-25.84L351.80-25.84L351.80-21.20L357.88-21.20L357.88-18.04L351.80-18.04L351.80-6.56Q351.80-4.84 352.66-3.92Q353.52-3 355.12-3L355.12-3Q356.88-3 358.12-4L358.12-4Z M366.16-8.84L365.44-28L369.96-28L369.20-8.84L366.16-8.84ZM367.72 0.24Q366.60 0.24 365.84-0.50Q365.08-1.24 365.08-2.32L365.08-2.32Q365.08-3.40 365.84-4.14Q366.60-4.88 367.72-4.88L367.72-4.88Q368.84-4.88 369.56-4.14Q370.28-3.40 370.28-2.32L370.28-2.32Q370.28-1.24 369.54-0.50Q368.80 0.24 367.72 0.24L367.72 0.24Z"/></g>
</svg>
</g><g opacity="1" transform="rotate(0 171 414.929)">
<svg width="380" height="36.6534" x="171" y="414.929" version="1.1" preserveAspectRatio="none" viewBox="3.32 -29.68 312.68 30.16">
  <g transform="matrix(1 0 0 1 0 0)" class="companyName"><path id="id-D6z1nYkh11" d="M22.48 0L13.52-11L9.76-7.08L9.76 0L3.32 0L3.32-28L9.76-28L9.76-14.92L22.16-28L29.36-28L17.76-15.52L30.04 0L22.48 0Z M45.92 0.32Q42.52 0.32 39.82-1.10Q37.12-2.52 35.60-5.04Q34.08-7.56 34.08-10.76L34.08-10.76Q34.08-13.96 35.60-16.48Q37.12-19 39.82-20.42Q42.52-21.84 45.92-21.84L45.92-21.84Q49.32-21.84 52-20.42Q54.68-19 56.20-16.48Q57.72-13.96 57.72-10.76L57.72-10.76Q57.72-7.56 56.20-5.04Q54.68-2.52 52-1.10Q49.32 0.32 45.92 0.32L45.92 0.32ZM45.92-4.80Q48.32-4.80 49.86-6.42Q51.40-8.04 51.40-10.76L51.40-10.76Q51.40-13.48 49.86-15.10Q48.32-16.72 45.92-16.72L45.92-16.72Q43.52-16.72 41.96-15.10Q40.40-13.48 40.40-10.76L40.40-10.76Q40.40-8.04 41.96-6.42Q43.52-4.80 45.92-4.80L45.92-4.80Z M79.04-21.84Q83.04-21.84 85.50-19.44Q87.96-17.04 87.96-12.32L87.96-12.32L87.96 0L81.72 0L81.72-11.36Q81.72-13.92 80.60-15.18Q79.48-16.44 77.36-16.44L77.36-16.44Q75-16.44 73.60-14.98Q72.20-13.52 72.20-10.64L72.20-10.64L72.20 0L65.96 0L65.96-21.52L71.92-21.52L71.92-19Q73.16-20.36 75-21.10Q76.84-21.84 79.04-21.84L79.04-21.84Z M110.76-21.84Q114.76-21.84 117.22-19.44Q119.68-17.04 119.68-12.32L119.68-12.32L119.68 0L113.44 0L113.44-11.36Q113.44-13.92 112.32-15.18Q111.20-16.44 109.08-16.44L109.08-16.44Q106.72-16.44 105.32-14.98Q103.92-13.52 103.92-10.64L103.92-10.64L103.92 0L97.68 0L97.68-21.52L103.64-21.52L103.64-19Q104.88-20.36 106.72-21.10Q108.56-21.84 110.76-21.84L110.76-21.84Z M150.72-10.68Q150.72-10.56 150.60-9L150.60-9L134.32-9Q134.76-7 136.40-5.84Q138.04-4.68 140.48-4.68L140.48-4.68Q142.16-4.68 143.46-5.18Q144.76-5.68 145.88-6.76L145.88-6.76L149.20-3.16Q146.16 0.32 140.32 0.32L140.32 0.32Q136.68 0.32 133.88-1.10Q131.08-2.52 129.56-5.04Q128.04-7.56 128.04-10.76L128.04-10.76Q128.04-13.92 129.54-16.46Q131.04-19 133.66-20.42Q136.28-21.84 139.52-21.84L139.52-21.84Q142.68-21.84 145.24-20.48Q147.80-19.12 149.26-16.58Q150.72-14.04 150.72-10.68L150.72-10.68ZM139.56-17.12Q137.44-17.12 136-15.92Q134.56-14.72 134.24-12.64L134.24-12.64L144.84-12.64Q144.52-14.68 143.08-15.90Q141.64-17.12 139.56-17.12L139.56-17.12Z M175 0L168.20-8.44L165.20-5.48L165.20 0L158.96 0L158.96-29.68L165.20-29.68L165.20-12.88L174.32-21.52L181.76-21.52L172.80-12.40L182.56 0L175 0Z M201.64-5.44L203.32-1.04Q202.40-0.36 201.06-0.02Q199.72 0.32 198.24 0.32L198.24 0.32Q194.40 0.32 192.30-1.64Q190.20-3.60 190.20-7.40L190.20-7.40L190.20-16.24L186.88-16.24L186.88-21.04L190.20-21.04L190.20-26.28L196.44-26.28L196.44-21.04L201.80-21.04L201.80-16.24L196.44-16.24L196.44-7.48Q196.44-6.12 197.14-5.38Q197.84-4.64 199.12-4.64L199.12-4.64Q200.60-4.64 201.64-5.44L201.64-5.44Z M216.52 0.48Q213.68 0.48 211.30-0.58Q208.92-1.64 207.40-3.60L207.40-3.60L211.00-7.92Q213.28-4.84 216.20-4.84L216.20-4.84Q220.16-4.84 220.16-9.48L220.16-9.48L220.16-22.80L210.32-22.80L210.32-28L226.60-28L226.60-9.84Q226.60-4.68 224.04-2.10Q221.48 0.48 216.52 0.48L216.52 0.48Z M246.88 0.32Q243.48 0.32 240.78-1.10Q238.08-2.52 236.56-5.04Q235.04-7.56 235.04-10.76L235.04-10.76Q235.04-13.96 236.56-16.48Q238.08-19 240.78-20.42Q243.48-21.84 246.88-21.84L246.88-21.84Q250.28-21.84 252.96-20.42Q255.64-19 257.16-16.48Q258.68-13.96 258.68-10.76L258.68-10.76Q258.68-7.56 257.16-5.04Q255.64-2.52 252.96-1.10Q250.28 0.32 246.88 0.32L246.88 0.32ZM246.88-4.80Q249.28-4.80 250.82-6.42Q252.36-8.04 252.36-10.76L252.36-10.76Q252.36-13.48 250.82-15.10Q249.28-16.72 246.88-16.72L246.88-16.72Q244.48-16.72 242.92-15.10Q241.36-13.48 241.36-10.76L241.36-10.76Q241.36-8.04 242.92-6.42Q244.48-4.80 246.88-4.80L246.88-4.80Z M279.64-21.84Q282.64-21.84 285.10-20.46Q287.56-19.08 288.96-16.58Q290.36-14.08 290.36-10.76L290.36-10.76Q290.36-7.44 288.96-4.94Q287.56-2.44 285.10-1.06Q282.64 0.32 279.64 0.32L279.64 0.32Q275.20 0.32 272.88-2.48L272.88-2.48L272.88 0L266.92 0L266.92-29.68L273.16-29.68L273.16-19.24Q275.52-21.84 279.64-21.84L279.64-21.84ZM278.56-4.80Q280.96-4.80 282.50-6.42Q284.04-8.04 284.04-10.76L284.04-10.76Q284.04-13.48 282.50-15.10Q280.96-16.72 278.56-16.72L278.56-16.72Q276.16-16.72 274.62-15.10Q273.08-13.48 273.08-10.76L273.08-10.76Q273.08-8.04 274.62-6.42Q276.16-4.80 278.56-4.80L278.56-4.80Z M305.84 0.32Q303.16 0.32 300.60-0.34Q298.04-1 296.52-2L296.52-2L298.60-6.48Q300.04-5.56 302.08-4.98Q304.12-4.40 306.08-4.40L306.08-4.40Q310.04-4.40 310.04-6.36L310.04-6.36Q310.04-7.28 308.96-7.68Q307.88-8.08 305.64-8.36L305.64-8.36Q303.00-8.76 301.28-9.28Q299.56-9.80 298.30-11.12Q297.04-12.44 297.04-14.88L297.04-14.88Q297.04-16.92 298.22-18.50Q299.40-20.08 301.66-20.96Q303.92-21.84 307.00-21.84L307.00-21.84Q309.28-21.84 311.54-21.34Q313.80-20.84 315.28-19.96L315.28-19.96L313.20-15.52Q310.36-17.12 307.00-17.12L307.00-17.12Q305.00-17.12 304.00-16.56Q303.00-16 303.00-15.12L303.00-15.12Q303.00-14.12 304.08-13.72Q305.16-13.32 307.52-12.96L307.52-12.96Q310.16-12.52 311.84-12.02Q313.52-11.52 314.76-10.20Q316.00-8.88 316.00-6.52L316.00-6.52Q316.00-4.52 314.80-2.96Q313.60-1.40 311.30-0.54Q309.00 0.32 305.84 0.32L305.84 0.32Z"/></g>
</svg>
</g><g opacity="1" transform="rotate(0 285 237.9668)">
<svg width="152" height="148.0252" x="285" y="237.9668" version="1.1" preserveAspectRatio="none" viewBox="86.44352722167969 62.78300857543945 165.7563934326172 161.42193603515625">
  <g transform="matrix(1 0 0 1 0 0)" class="icon1"><switch><g><g><g enable-background="new    "><g enable-background="new    "><g><g><path d="M251.222,135.877c0.589,3.457,0.943,6.711,0.822,10.219c0.047-2.457,0.134-4.914,0.092-7.371         c-0.037-2.225-0.303-4.473-0.515-6.688c-0.313-3.273-0.931-6.474-1.627-9.685c0.394,2.189,0.898,4.31,0.999,6.541         C251.098,131.219,251.042,133.554,251.222,135.877"></path></g></g></g><g enable-background="new    "><g><path d="M210.096,106.884c-0.68-4.711-7.194-21.963-10.069-27.607        c-0.327-0.642-0.898-2.44-1.386-2.97c-0.452,0.379-20.729,13.922-25.643,15.062c2.743,0.923,5.447,1.962,8.156,2.981        c-7.374,11.935-21.006,19.913-34.685,22.167c-7.397,1.219-15.553,0.8-22.13-3.126c-5.884-3.512-9.208-9.649-8.378-16.516        c0.834-6.895,5.114-13.014,10.365-17.402c0.425-0.62,0.906-1.194,1.453-1.694c0.082-0.075,0.17-0.152,0.254-0.228        c0.084-0.089,0.159-0.185,0.246-0.272c0.454-0.451,0.94-0.847,1.444-1.213c0.065-0.079,0.135-0.155,0.201-0.233        c0.393-0.552,0.836-1.069,1.329-1.544c4.019-4.509,8.893-8.627,14.307-11.506c-12.457,3.531-24.256,9.967-33.175,19.45        c-9.297,9.885-16.333,24.473-11.992,38.165c3.572,11.267,14.069,17.952,25.11,20.522c13.645,3.176,28.359,1.058,41.239-4.118        c15.121-6.077,28.214-16.807,36.865-30.646c2.367,1.591,4.67,3.276,6.984,4.943        C210.459,109.69,210.298,108.284,210.096,106.884z"></path><path d="M241.726,181.57c-1.879,3.132-3.748,6.226-5.927,9.159        c-2.079,2.797-4.35,5.472-6.762,7.985c-4.917,5.123-10.477,9.527-16.51,13.256c-12.322,7.614-26.784,11.861-41.266,12.212        c-11.885,0.288-23.548-2.148-34.525-6.63c18.392,6.924,38.868,6.113,57.286-0.273c17.313-6.005,33.477-16.877,44.473-31.663        c2.513-3.379,4.744-6.975,6.586-10.764C243.989,177.102,242.966,179.395,241.726,181.57"></path><path d="M239.938,102.011c2.239,13.193-1.264,26.405-8.51,37.512        c-7.77,11.912-19.103,21.271-31.334,28.33c-12.955,7.476-27.355,12.637-42.13,14.992c-13.519,2.155-27.854,2.042-40.896-2.5        c-7.197-2.507-13.943-6.461-19.3-11.923c-5.598-5.707-9.296-12.97-10.681-20.835c-1.195-6.786-0.535-13.561,0.436-20.342        c0.852-4.061,1.707-8.087,3.024-12.026c1.299-3.881,2.852-7.755,4.73-11.399c0.98-1.902,2.046-3.747,3.123-5.595        c-7.675,13.615-11.503,30.877-2.284,44.745c8.496,12.779,24.441,18.172,39.136,18.972c19.8,1.078,39.768-5.347,56.318-15.997        c15.742-10.129,31.036-25.818,33.433-45.222c0.493-3.996,0.379-8.059-0.366-12.016c4.386,2.955,8.754,6.11,12.486,9.88        C238.098,99.57,239.348,100.719,239.938,102.011"></path><path d="M249.994,122.352c0.796,4.135,1.618,8.252,1.924,12.458        c0.34,4.676,0.502,9.517-0.28,14.154c-1.144,6.784-3.577,13.306-6.95,19.292c-7.14,12.672-18.208,22.854-30.477,30.479        c-12.905,8.021-27.499,13.491-42.511,15.861c-14.104,2.228-28.997,1.735-42.465-3.332c-6.354-2.391-12.318-5.824-17.44-10.294        c-3.618-3.157-6.673-7.024-9.495-10.89c-2.529-3.464-4.698-7.117-6.733-10.89c-1.711-3.17-3.112-6.573-4.374-9.947        c5.039,11.916,14.508,21.071,26.343,26.18c12.438,5.367,26.435,6.424,39.797,5.104c14.747-1.458,29.231-5.825,42.492-12.402        c12.989-6.442,25.103-15.167,34.43-26.341c10.226-12.249,17.791-28.605,14.146-44.809        C248.938,118.764,249.599,120.524,249.994,122.352"></path></g></g></g></g></g></switch></g>
</svg>
</g></svg>